<svg width="16" height="16" viewBox="0 0 16 16" fill="none" xmlns="http://www.w3.org/2000/svg">
<path d="M8 15.5C6.95 15.5 5.96875 15.3031 5.05625 14.9094C4.14375 14.5156 3.35 13.9812 2.675 13.3062C2 12.6312 1.46875 11.8344 1.08125 10.9156C0.69375 9.99687 0.5 9.0125 0.5 7.9625C0.5 6.9125 0.69375 5.93437 1.08125 5.02812C1.46875 4.12187 2 3.33125 2.675 2.65625C3.35 1.98125 4.14375 1.45312 5.05625 1.07187C5.96875 0.690625 6.95 0.5 8 0.5C9.05 0.5 10.0312 0.690625 10.9437 1.07187C11.8562 1.45312 12.65 1.98125 13.325 2.65625C14 3.33125 14.5312 4.12187 14.9187 5.02812C15.3062 5.93437 15.5 6.9125 15.5 7.9625C15.5 9.0125 15.3062 9.99687 14.9187 10.9156C14.5312 11.8344 14 12.6312 13.325 13.3062C12.65 13.9812 11.8562 14.5156 10.9437 14.9094C10.0312 15.3031 9.05 15.5 8 15.5ZM8 14.4125C8.4375 13.9625 8.80312 13.4469 9.09687 12.8656C9.39062 12.2844 9.63125 11.5937 9.81875 10.7937H6.2C6.375 11.5437 6.60937 12.2187 6.90312 12.8187C7.19687 13.4187 7.5625 13.95 8 14.4125ZM6.40625 14.1875C6.09375 13.7125 5.825 13.2 5.6 12.65C5.375 12.1 5.1875 11.4812 5.0375 10.7937H2.225C2.7 11.6812 3.25 12.3781 3.875 12.8844C4.5 13.3906 5.34375 13.825 6.40625 14.1875ZM9.6125 14.1687C10.5125 13.8812 11.3219 13.45 12.0406 12.875C12.7594 12.3 13.3375 11.6062 13.775 10.7937H10.9812C10.8187 11.4687 10.6281 12.0812 10.4094 12.6312C10.1906 13.1812 9.925 13.6937 9.6125 14.1687ZM1.85 9.66875H4.83125C4.79375 9.33125 4.77187 9.02812 4.76562 8.75937C4.75937 8.49062 4.75625 8.225 4.75625 7.9625C4.75625 7.65 4.7625 7.37187 4.775 7.12812C4.7875 6.88437 4.8125 6.6125 4.85 6.3125H1.85C1.7625 6.6125 1.70312 6.88125 1.67187 7.11875C1.64062 7.35625 1.625 7.6375 1.625 7.9625C1.625 8.2875 1.64062 8.57812 1.67187 8.83437C1.70312 9.09062 1.7625 9.36875 1.85 9.66875ZM5.99375 9.66875H10.025C10.075 9.28125 10.1062 8.96562 10.1187 8.72187C10.1312 8.47812 10.1375 8.225 10.1375 7.9625C10.1375 7.7125 10.1312 7.47187 10.1187 7.24062C10.1062 7.00937 10.075 6.7 10.025 6.3125H5.99375C5.94375 6.7 5.9125 7.00937 5.9 7.24062C5.8875 7.47187 5.88125 7.7125 5.88125 7.9625C5.88125 8.225 5.8875 8.47812 5.9 8.72187C5.9125 8.96562 5.94375 9.28125 5.99375 9.66875ZM11.15 9.66875H14.15C14.2375 9.36875 14.2969 9.09062 14.3281 8.83437C14.3594 8.57812 14.375 8.2875 14.375 7.9625C14.375 7.6375 14.3594 7.35625 14.3281 7.11875C14.2969 6.88125 14.2375 6.6125 14.15 6.3125H11.1687C11.2062 6.75 11.2312 7.08437 11.2437 7.31562C11.2562 7.54687 11.2625 7.7625 11.2625 7.9625C11.2625 8.2375 11.2531 8.49687 11.2344 8.74062C11.2156 8.98437 11.1875 9.29375 11.15 9.66875ZM10.9625 5.1875H13.775C13.3625 4.325 12.7969 3.60625 12.0781 3.03125C11.3594 2.45625 10.5312 2.05 9.59375 1.8125C9.90625 2.275 10.1719 2.775 10.3906 3.3125C10.6094 3.85 10.8 4.475 10.9625 5.1875ZM6.2 5.1875H9.8375C9.7 4.525 9.46875 3.88437 9.14375 3.26562C8.81875 2.64687 8.4375 2.1 8 1.625C7.6 1.9625 7.2625 2.40625 6.9875 2.95625C6.7125 3.50625 6.45 4.25 6.2 5.1875ZM2.225 5.1875H5.05625C5.19375 4.5125 5.36875 3.90937 5.58125 3.37812C5.79375 2.84687 6.0625 2.33125 6.3875 1.83125C5.45 2.06875 4.63125 2.46875 3.93125 3.03125C3.23125 3.59375 2.6625 4.3125 2.225 5.1875Z" fill="black"/>
</svg>
